{"title":"Juelz Ventura - Juelz Rocks The Cock","uid":9035851,"size":346555734,"categoryP":"porn","categoryS":"movie_clips","magnet":"?xt=urn:btih:bd997e10bb5325b42d9716f04ecc6a8f56e7fcb5&amp;dn=Juelz+Ventura+-+Juelz+Rocks+The+Cock&amp;tr=udp%3A%2F%2Ftracker.openbittorrent.com%3A80&amp;tr=udp%3A%2F%2Fopen.demonii.com%3A1337&amp;tr=udp%3A%2F%2Ftracker.coppersurfer.tk%3A6969&amp;tr=udp%3A%2F%2Fexodus.desync.com%3A6969","seeders":0,"leechers":1,"uploader":null,"files":1,"time":1381503686,"description":" &lt;a href=&quot;http://bayimg.com/MAadlaaFn&quot; rel=&quot;nofollow&quot; target=&quot;_NEW&quot;&gt;http://bayimg.com/MAadlaaFn&lt;/a&gt;\n\n\nTattooed ALT slut Juelz Ventura is always down to suck a hard cock whenever and wherever she gets the opportunity! In this case, She has taken her Harley to get some work done on it and just doesn't feel like dishing out the doe to pay for it. So she offers up a sexy tease and some oral satisfaction to get you the fuck off. She deep throats your cock until she gags and jerks your rock hard man member. This slut enjoys milking every last drop of your warm creamy load all over her nasty pornstar face! Thanks Juelz...CUM back any time for a tune up!\n\n\nFormat : MPEG-4\nFormat profile : Base Media\nCodec ID : isom\nFile size : 331 MiB\nDuration : 17mn 55s\nOverall bit rate : 2 577 Kbps\nMovie name : jules full\nAlbum/Performer : nadir maraschin\nEncoded date : UTC 2013-10-05 07:42:40\nTagged date : UTC 2013-10-05 07:42:40\nWriting application : Lavf53.30.100\ndesc : This video is about jules full\n\nVideo\nID : 1\nFormat : AVC\nFormat/Info : Advanced Video Codec\nFormat profile : &lt;a class=&quot;__cf_email__&quot; href=&quot;/cdn-cgi/l/email-protection&quot; data-cfemail=&quot;e9a1808e81a9a5dac7d8&quot;&gt;[email&amp;#160;protected]&lt;/a&gt;&lt;script cf-hash='f9e31' type=&quot;text/javascript&quot;&gt;\n/* &lt;![CDATA[ */!function(){try{var t=&quot;currentScript&quot;in document?document.currentScript:function(){for(var t=document.getElementsByTagName(&quot;script&quot;),e=t.length;e--;)if(t[e].getAttribute(&quot;cf-hash&quot;))return t[e]}();if(t&amp;&amp;t.previousSibling){var e,r,n,i,c=t.previousSibling,a=c.getAttribute(&quot;data-cfemail&quot;);if(a){for(e=&quot;&quot;,r=parseInt(a.substr(0,2),16),n=2;a.length-n;n+=2)i=parseInt(a.substr(n,2),16)^r,e+=String.fromCharCode(i);e=document.createTextNode(e),c.parentNode.replaceChild(e,c)}}}catch(u){}}();/* ]]&gt; */&lt;/script&gt;\nFormat settings, CABAC : No\nFormat settings, ReFrames : 3 frames\nCodec ID : avc1\nCodec ID/Info : Advanced Video Coding\nDuration : 17mn 55s\nBit rate mode : Variable\nBit rate : 2 500 Kbps\nWidth : 854 pixels\nHeight : 480 pixels\nDisplay aspect ratio : 16:9\nFrame rate mode : Constant\nFrame rate : 30.000 fps\nColor space : YUV\nChroma subsampling : 4:2:0\nBit depth : 8 bits\nScan type : Progressive\nBits/(Pixel*Frame) : 0.203\nStream size : 313 MiB (95%)\nWriting library : x264 core 119\n\n\nAudio\nID : 2\nFormat : AAC\nFormat/Info : Advanced Audio Codec\nFormat profile : LC\nCodec ID : 40\nDuration : 17mn 55s\nBit rate mode : Constant\nBit rate : 128 Kbps\nChannel(s) : 2 channels\nChannel positions : Front: L R\nSampling rate : 44.1 KHz\nCompression mode : Lossy\nStream size : 16.4 MiB (5%)\nLanguage : English\nEncoded date : UTC 2013-10-05 07:42:40\nTagged date : UTC 2013-10-05 07:42:40\n","torrent":{"xt":"urn:btih:bd997e10bb5325b42d9716f04ecc6a8f56e7fcb5","amp;dn":"Juelz+Ventura+-+Juelz+Rocks+The+Cock","amp;tr":["udp%3A%2F%2Ftracker.openbittorrent.com%3A80","udp%3A%2F%2Fopen.demonii.com%3A1337","udp%3A%2F%2Ftracker.coppersurfer.tk%3A6969","udp%3A%2F%2Fexodus.desync.com%3A6969"],"infoHash":"bd997e10bb5325b42d9716f04ecc6a8f56e7fcb5","infoHashBuffer":{"type":"Buffer","data":[189,153,126,16,187,83,37,180,45,151,22,240,78,204,106,143,86,231,252,181]},"announce":[],"urlList":[]}}